<?xml version="1.0" encoding="UTF-8"?>
<svg id="Layer_2" data-name="Layer 2" xmlns="http://www.w3.org/2000/svg" viewBox="0 0 495.14 232">
  <defs>
    <style>
      .cls-1 {
        fill: #3f37c9;
      }

      .cls-1, .cls-2 {
        fill-rule: evenodd;
      }

      .cls-1, .cls-2, .cls-3, .cls-4, .cls-5, .cls-6 {
        stroke-width: 0px;
      }

      .cls-2 {
        fill: #7209b7;
      }

      .cls-3 {
        fill: #4cc9f0;
      }

      .cls-4 {
        fill: #3a0ca3;
      }

      .cls-5 {
        fill: #191828;
      }

      .cls-6 {
        fill: #f72585;
      }
    </style>
  </defs>
  <g id="Layer_1-2" data-name="Layer 1">
    <g>
      <path class="cls-5" d="m217.3,124c.45,10.24,7.48,15.49,16.92,15.49,8.37,0,13.62-3.56,13.62-9.7,0-5.17-3.38-7.66-10.69-9.09l-11.13-2.14c-8.28-1.6-13.98-6.05-13.98-14.78,0-9.8,7.75-16.48,20.04-16.48,14.07,0,22.17,7.48,22.26,20.12l-7.04.36c-.27-9.26-5.88-14.52-15.14-14.52-8.11,0-12.65,3.83-12.65,10.06,0,5.52,3.65,7.3,10.15,8.55l10.15,1.96c10.24,1.96,15.4,6.41,15.4,15.41,0,10.33-8.9,16.3-21.02,16.3-13.8,0-23.87-7.57-23.87-21.11l6.95-.45Z"/>
      <path class="cls-5" d="m268.49,159.44l6.32-15.05-16.38-38.82h7.75l12.38,29.92h.36l11.93-29.92h7.3l-22.44,53.88h-7.21Z"/>
      <path class="cls-5" d="m310.69,144.48h-7.39v-38.91h7.39v6.95c1.87-4.72,7.12-8.02,12.91-8.02,10.15,0,14.25,6.77,14.25,15.85v24.13h-7.39v-23.51c0-6.5-3.12-10.6-9.26-10.6s-10.51,4.63-10.51,11.75v22.35Z"/>
      <path class="cls-5" d="m382.62,131.39c-1.96,8.82-8.46,14.16-18.17,14.16-11.58,0-20.04-7.84-20.04-19.95s8.46-21.11,19.68-21.11c12.38,0,18.7,8.82,18.7,19.41v2.94h-30.99c.36,7.57,5.79,12.91,12.73,12.91,6.5,0,10.33-3.12,11.93-9.09l6.14.71Zm-7.39-9.35c-.27-6.23-3.74-11.93-11.13-11.93s-11.22,5.52-12.11,11.93h23.24Z"/>
      <path class="cls-5" d="m413.15,112.95c-2.14-1.16-3.65-1.6-6.06-1.6-5.61,0-9.79,5.07-9.79,12.55v20.57h-7.39v-38.91h7.39v7.93c1.43-4.45,5.43-9,11.04-9,2.4,0,4.19.62,5.52,1.78l-.71,6.68Z"/>
      <path class="cls-5" d="m433.27,130.94c-3.21,0-6.14-.54-8.55-1.6-1.34.8-2.58,2.05-2.58,3.83,0,2.14,1.33,3.38,4.72,3.38h15.23c8.46,0,12.91,4.45,12.91,10.51,0,9.71-10.87,13.45-22.44,13.45-10.51,0-19.23-3.29-19.23-10.51,0-4.45,3.21-7.3,8.01-8.19-3.56-1.16-5.16-3.74-5.16-6.68,0-3.38,2.4-5.79,5.88-7.3-3.21-2.32-5.08-5.79-5.08-10.06,0-8.19,6.77-13.27,16.3-13.27,4.9,0,9.26,1.52,12.2,4.01,2.05-3.12,5.7-5.34,9.88-5.34v6.41c-2.58,0-5.52.62-7.48,1.6,1.16,1.87,1.87,4.1,1.87,6.59,0,8.1-6.86,13.18-16.47,13.18Zm-.71,24.67c8.9,0,15.32-2.14,15.32-7.75,0-3.56-2.94-4.81-7.48-4.81h-12.55c-4.01,0-7.48,1.34-7.48,5.52,0,4.89,4.99,7.04,12.2,7.04Zm.8-46.31c-5.43,0-8.81,3.03-8.81,8.55s3.38,8.37,8.81,8.37,8.91-3.03,8.91-8.37-3.38-8.55-8.91-8.55Z"/>
      <path class="cls-5" d="m465.49,159.44l6.32-15.05-16.38-38.82h7.75l12.38,29.92h.36l11.93-29.92h7.3l-22.44,53.88h-7.21Z"/>
    </g>
    <g>
      <rect class="cls-4" x="51.93" y="48" width="51.93" height="136"/>
      <polygon class="cls-2" points="103.86 0 103.86 48 51.93 48 103.86 0"/>
      <polygon class="cls-1" points="51.93 232 51.93 184 103.86 184 51.93 232"/>
      <polygon class="cls-6" points="51.93 48 0 91.68 0 184 51.93 184 51.93 48"/>
      <polygon class="cls-3" points="103.86 184 155.78 140.32 155.78 48 103.86 48 103.86 184"/>
    </g>
  </g>
</svg>